The film follows a group of local teens as they fall victim to a chain-wielding killer dubbed "Chain Man" after they fail to forward some chain mail..
 
http://www.imdb.com/title/tt1148200/

Subs: Dutch, English (srt).


De 'Chain Man' is een gestoorde moordenaar die mensen ombrengt met een ketting als zij zijn opdracht, het versturen van kettingberichten via de mail, weigeren. Hij heeft het voorzien op een groepje studenten, maar krijgt dan de politie op zijn hielen..
 
http://www.moviemeter.nl/film/61390

Ondertitels: Engels, Nederlands (srt).

General
Complete name                    : Chain Letter-AC3-XviD-DVDRip 2010 TBS\Chain Letter-AC3-XviD-DVDRip 2010 TBS.avi
Format                           : AVI
Format/Info                      : Audio Video Interleave
File size                        : 1.36 GiB
Duration                         : 1h 29mn
Overall bit rate                 : 2 190 Kbps
Writing application              : VirtualDubMod 1.5.4.1 (build 2178/release)
Writing library                  : VirtualDubMod build 2178/release

Video
ID                               : 0
Format                           : MPEG-4 Visual
Format profile                   : Simple@L3
Format settings, BVOP            : No
Format settings, QPel            : No
Format settings, GMC             : No warppoints
Format settings, Matrix          : Default (H.263)
Codec ID                         : XVID
Codec ID/Hint                    : XviD
Duration                         : 1h 29mn
Bit rate                         : 1 861 Kbps
Width                            : 720 pixels
Height                           : 400 pixels
Display aspect ratio             : 16:9
Frame rate                       : 23.976 fps
Resolution                       : 8 bits
Colorimetry                      : 4:2:0
Scan type                        : Progressive
Bits/(Pixel*Frame)               : 0.269
Stream size                      : 1.16 GiB (85%)
Writing library                  : XviD 1.1.2 (UTC 2006-11-01)

Audio
ID                               : 1
Format                           : AC-3
Format/Info                      : Audio Coding 3
Codec ID                         : 2000
Duration                         : 1h 29mn
Bit rate mode                    : Constant
Bit rate                         : 320 Kbps
Channel(s)                       : 6 channels
Channel positions                : Front: L C R, Surround: L R, LFE
Sampling rate                    : 48.0 KHz
Stream size                      : 204 MiB (15%)
Alignment                        : Split accross interleaves
Interleave, duration             : 42 ms (1.00 video frame)
Interleave, preload duration     : 500 ms

Blackbeard  TBS.